<svg width="66" height="54" viewBox="0 0 66 54" fill="none" xmlns="http://www.w3.org/2000/svg">
<path fill-rule="evenodd" clip-rule="evenodd" d="M17.8111 8.53613C18.0236 8.24065 18.2597 7.87892 18.5607 7.39116C18.6706 7.21305 18.9702 6.7187 19.1935 6.35036C19.3128 6.1536 19.4104 5.99253 19.4454 5.93524C21.9324 1.86716 23.7402 0 27 0H42V6H27C26.7398 6 25.9215 6.84517 24.5646 9.06476C24.5366 9.11051 24.4532 9.2481 24.3467 9.42382C24.1216 9.79535 23.7931 10.3374 23.6666 10.5423C23.2978 11.14 22.9912 11.6096 22.6818 12.0398C21.3371 13.9092 19.993 15 18 15H9C7.34315 15 6 16.3431 6 18V45C6 46.6569 7.34315 48 9 48H57C58.6569 48 60 46.6569 60 45V27H66V45C66 49.9706 61.9706 54 57 54H9C4.02944 54 0 49.9706 0 45V18C0 13.0294 4.02944 9 9 9H17.4486C17.5485 8.88582 17.6709 8.73099 17.8111 8.53613ZM48 15V9H54V3H60V9H66V15H60V21H54V15H48ZM33 45C24.7157 45 18 38.2843 18 30C18 21.7157 24.7157 15 33 15C41.2843 15 48 21.7157 48 30C48 38.2843 41.2843 45 33 45ZM33 39C37.9706 39 42 34.9706 42 30C42 25.0294 37.9706 21 33 21C28.0294 21 24 25.0294 24 30C24 34.9706 28.0294 39 33 39Z" fill="white"/>
</svg>
