<svg width="74" height="57" viewBox="0 0 74 57" fill="none" xmlns="http://www.w3.org/2000/svg">
<path fill-rule="evenodd" clip-rule="evenodd" d="M66.6667 49.2916H62.7644C61.3916 53.7097 57.6875 56.875 53.3334 56.875C48.9794 56.875 45.2752 53.7097 43.9024 49.2917H29.431C28.0582 53.7097 24.3541 56.875 20 56.875C15.6459 56.875 11.9418 53.7097 10.569 49.2916H6.66667C2.98477 49.2916 0 45.8965 0 41.7083V7.58333C0 3.39517 2.98477 0 6.66667 0H51.2733C53.7984 0 56.1068 1.62285 57.2361 4.19196L62.5856 16.362L73.3334 24.5124V41.7083C73.3334 45.8965 70.3486 49.2916 66.6667 49.2916ZM51.2733 7.58333L57.4145 21.5546L66.6667 28.5709V41.7083H62.7644C61.3916 37.2903 57.6875 34.125 53.3334 34.125C48.9794 34.125 45.2752 37.2903 43.9024 41.7084H29.431C28.0582 37.2903 24.3541 34.125 20 34.125C15.6459 34.125 11.9418 37.2903 10.569 41.7083H6.66667V7.58333H51.2733ZM23.3333 45.5C23.3333 47.5941 21.841 49.2917 20 49.2917C18.159 49.2917 16.6667 47.5941 16.6667 45.5C16.6667 43.4059 18.159 41.7084 20 41.7084C21.841 41.7084 23.3333 43.4059 23.3333 45.5ZM56.6667 45.5C56.6667 47.5941 55.1743 49.2917 53.3333 49.2917C51.4924 49.2917 50 47.5941 50 45.5C50 43.4059 51.4924 41.7083 53.3333 41.7083C55.1743 41.7083 56.6667 43.4059 56.6667 45.5Z" fill="white"/>
</svg>
