<svg width="44" height="54" viewBox="0 0 44 54" fill="none" xmlns="http://www.w3.org/2000/svg">
<path d="M21.8043 24.5217C19.139 24.5217 16.9782 22.361 16.9782 19.6957C16.9782 17.0303 19.139 14.8696 21.8043 14.8696C24.4697 14.8696 26.6304 17.0303 26.6304 19.6957C26.6304 22.361 24.4697 24.5217 21.8043 24.5217Z" fill="white"/>
<path fill-rule="evenodd" clip-rule="evenodd" d="M9.73911 17.2826V25.7283L0.0869446 32.9674V46.2391L9.73911 46.2391C9.73911 48.9045 11.8998 51.0652 14.5652 51.0652H19.3913V53.4783H24.2174V51.0652H29.0435C31.7088 51.0652 33.8696 48.9045 33.8696 46.2391L43.5217 46.2391V32.9674L33.8696 25.7283V17.2826C33.8696 9.66686 29.2521 0.391304 21.8043 0.391304C14.3566 0.391304 9.73911 9.66686 9.73911 17.2826ZM24.2174 46.2391H29.0435V17.2826C29.0435 11.9914 25.6713 5.21739 21.8043 5.21739C17.9374 5.21739 14.5652 11.9914 14.5652 17.2826V46.2391H19.3913V31.7609H24.2174V46.2391ZM4.91303 35.3804L9.73912 31.7609V41.413H4.91303V35.3804ZM33.8696 41.413V31.7609L38.6956 35.3804V41.413H33.8696Z" fill="white"/>
</svg>
